ffmpeg started on 2016-12-04 at 22:09:14
Report written to "Output/x264/results/ffmpeg/crowd_run_2160p50veryfast2000k.log"
Command line:
Tools/ffmpeg/ffmpeg -benchmark -y -i Input/y4m/crowd_run_2160p50.y4m -c:v libx264 -preset veryfast -b:v 2000k -an Output/x264/encoded/crowd_run_2160p50veryfast2000k.mkv
ffmpeg version N-82227-gdb23fde Copyright (c) 2000-2016 the FFmpeg developers
  built with gcc 5.4.0 (Ubuntu 5.4.0-6ubuntu1~16.04.2) 20160609
  configuration: --prefix=/home/jaroslav/ffmpeg_build --pkg-config-flags=--static --extra-cflags=-I/home/jaroslav/ffmpeg_build/include --extra-ldflags=-L/home/jaroslav/ffmpeg_build/lib --bindir=/home/jaroslav/bin --enable-gpl --enable-libass --enable-libfdk-aac --enable-libfreetype --enable-libmp3lame --enable-libopus --enable-libtheora --enable-libvorbis --enable-libvpx --enable-libx264 --enable-libx265 --enable-nvenc --enable-libmfx --enable-libxvid --enable-libgsm --enable-libopencore-amrnb --enable-version3 --enable-nonfree
  libavutil      55. 35.100 / 55. 35.100
  libavcodec     57. 66.101 / 57. 66.101
  libavformat    57. 57.100 / 57. 57.100
  libavdevice    57.  2.100 / 57.  2.100
  libavfilter     6. 66.100 /  6. 66.100
  libswscale      4.  3.100 /  4.  3.100
  libswresample   2.  4.100 /  2.  4.100
  libpostproc    54.  2.100 / 54.  2.100
Input #0, yuv4mpegpipe, from 'Input/y4m/crowd_run_2160p50.y4m':
  Duration: 00:00:10.00, start: 0.000000, bitrate: 4976642 kb/s
    Stream #0:0: Video: rawvideo (I420 / 0x30323449), yuv420p(progressive), 3840x2160, SAR 1:1 DAR 16:9, 50 fps, 50 tbr, 50 tbn, 50 tbc
[libx264 @ 0x37391c0] using SAR=1/1
[libx264 @ 0x37391c0] using cpu capabilities: MMX2 SSE2Fast SSSE3 SSE4.2 AVX FMA3 AVX2 LZCNT BMI2
[libx264 @ 0x37391c0] profile High, level 5.2
[libx264 @ 0x37391c0] 264 - core 148 - H.264/MPEG-4 AVC codec - Copyleft 2003-2016 - http://www.videolan.org/x264.html - options: cabac=1 ref=1 deblock=1:0:0 analyse=0x3:0x113 me=hex subme=2 psy=1 psy_rd=1.00:0.00 mixed_ref=0 me_range=16 chroma_me=1 trellis=0 8x8dct=1 cqm=0 deadzone=21,11 fast_pskip=1 chroma_qp_offset=0 threads=6 lookahead_threads=2 sliced_threads=0 nr=0 decimate=1 interlaced=0 bluray_compat=0 constrained_intra=0 bframes=3 b_pyramid=2 b_adapt=1 b_bias=0 direct=1 weightb=1 open_gop=0 weightp=1 keyint=250 keyint_min=25 scenecut=40 intra_refresh=0 rc_lookahead=10 rc=abr mbtree=1 bitrate=2000 ratetol=1.0 qcomp=0.60 qpmin=0 qpmax=69 qpstep=4 ip_ratio=1.40 aq=1:1.00
Output #0, matroska, to 'Output/x264/encoded/crowd_run_2160p50veryfast2000k.mkv':
  Metadata:
    encoder         : Lavf57.57.100
    Stream #0:0: Video: h264 (libx264) (H264 / 0x34363248), yuv420p, 3840x2160 [SAR 1:1 DAR 16:9], q=-1--1, 2000 kb/s, 50 fps, 1k tbn, 50 tbc
    Metadata:
      encoder         : Lavc57.66.101 libx264
    Side data:
      cpb: bitrate max/min/avg: 0/0/2000000 buffer size: 0 vbv_delay: -1
Stream mapping:
  Stream #0:0 -> #0:0 (rawvideo (native) -> h264 (libx264))
Press [q] to stop, [?] for help
frame=   16 fps=0.0 q=0.0 size=       0kB time=00:00:00.00 bitrate=N/A speed=   0x    frame=   22 fps= 16 q=48.0 size=       1kB time=-00:00:00.01 bitrate=N/A speed=N/A    frame=   31 fps= 16 q=58.0 size=       1kB time=00:00:00.16 bitrate=  36.4kbits/s speed=0.0807x    frame=   40 fps= 14 q=63.0 size=       1kB time=00:00:00.34 bitrate=  17.2kbits/s speed=0.117x    frame=   45 fps= 13 q=65.0 size=       1kB time=00:00:00.44 bitrate=  13.3kbits/s speed=0.127x    frame=   61 fps= 15 q=64.0 size=       1kB time=00:00:00.76 bitrate=   7.7kbits/s speed=0.191x    frame=   76 fps= 17 q=64.0 size=       1kB time=00:00:01.06 bitrate=   5.5kbits/s speed=0.235x    frame=   91 fps= 18 q=64.0 size=       1kB time=00:00:01.36 bitrate=   4.3kbits/s speed=0.271x    frame=   97 fps= 18 q=64.0 size=       1kB time=00:00:01.48 bitrate=   4.0kbits/s speed=0.267x    frame=  112 fps= 19 q=64.0 size=       1kB time=00:00:01.78 bitrate=   3.3kbits/s speed=0.294x    frame=  127 fps= 19 q=64.0 size=       1kB time=00:00:02.08 bitrate=   2.8kbits/s speed=0.317x    frame=  143 fps= 20 q=64.0 size=       1kB time=00:00:02.40 bitrate=   2.4kbits/s speed=0.339x    frame=  155 fps= 20 q=64.0 size=       1kB time=00:00:02.64 bitrate=   2.2kbits/s speed=0.337x    frame=  163 fps= 19 q=64.0 size=       1kB time=00:00:02.80 bitrate=   2.1kbits/s speed=0.333x    frame=  166 fps= 18 q=64.0 size=       1kB time=00:00:02.86 bitrate=   2.0kbits/s speed=0.314x    frame=  174 fps= 18 q=64.0 size=       1kB time=00:00:03.02 bitrate=   1.9kbits/s speed=0.313x    frame=  185 fps= 18 q=64.0 size=       1kB time=00:00:03.24 bitrate=   1.8kbits/s speed=0.309x    frame=  195 fps= 17 q=64.0 size=       1kB time=00:00:03.44 bitrate=   1.7kbits/s speed=0.308x    frame=  208 fps= 18 q=64.0 size=       1kB time=00:00:03.70 bitrate=   1.6kbits/s speed=0.316x    frame=  217 fps= 18 q=64.0 size=       1kB time=00:00:03.88 bitrate=   1.5kbits/s speed=0.317x    frame=  233 fps= 18 q=64.0 size=       1kB time=00:00:04.20 bitrate=   1.4kbits/s speed=0.329x    frame=  245 fps= 18 q=64.0 size=       1kB time=00:00:04.44 bitrate=   1.3kbits/s speed=0.329x    frame=  261 fps= 19 q=64.0 size=       1kB time=00:00:04.76 bitrate=   1.2kbits/s speed=0.34x    frame=  272 fps= 19 q=64.0 size=    1320kB time=00:00:04.98 bitrate=2171.1kbits/s speed=0.342x    frame=  278 fps= 18 q=64.0 size=    1320kB time=00:00:05.10 bitrate=2120.0kbits/s speed=0.338x    frame=  284 fps= 18 q=64.0 size=    1320kB time=00:00:05.22 bitrate=2071.3kbits/s speed=0.334x    frame=  299 fps= 19 q=64.0 size=    1320kB time=00:00:05.52 bitrate=1958.7kbits/s speed=0.342x    frame=  308 fps= 18 q=64.0 size=    1320kB time=00:00:05.70 bitrate=1896.9kbits/s speed=0.339x    frame=  314 fps= 18 q=64.0 size=    1320kB time=00:00:05.82 bitrate=1857.8kbits/s speed=0.336x    frame=  319 fps= 18 q=64.0 size=    1320kB time=00:00:05.92 bitrate=1826.4kbits/s speed=0.332x    frame=  323 fps= 17 q=64.0 size=    1320kB time=00:00:06.00 bitrate=1802.0kbits/s speed=0.322x    frame=  328 fps= 17 q=64.0 size=    1320kB time=00:00:06.10 bitrate=1772.5kbits/s speed=0.318x    frame=  330 fps= 17 q=64.0 size=    1320kB time=00:00:06.14 bitrate=1761.0kbits/s speed=0.308x    frame=  335 fps= 16 q=64.0 size=    1320kB time=00:00:06.24 bitrate=1732.7kbits/s speed=0.306x    frame=  339 fps= 16 q=64.0 size=    1320kB time=00:00:06.32 bitrate=1710.8kbits/s speed= 0.3x    frame=  340 fps= 16 q=64.0 size=    1320kB time=00:00:06.34 bitrate=1705.4kbits/s speed=0.29x    frame=  342 fps= 15 q=64.0 size=    1320kB time=00:00:06.38 bitrate=1694.7kbits/s speed=0.284x    frame=  343 fps= 15 q=64.0 size=    1320kB time=00:00:06.40 bitrate=1689.4kbits/s speed=0.277x    frame=  345 fps= 14 q=64.0 size=    1320kB time=00:00:06.44 bitrate=1678.9kbits/s speed=0.266x    frame=  348 fps= 14 q=64.0 size=    1320kB time=00:00:06.50 bitrate=1663.4kbits/s speed=0.26x    frame=  353 fps= 14 q=64.0 size=    1320kB time=00:00:06.60 bitrate=1638.2kbits/s speed=0.256x    frame=  355 fps= 13 q=64.0 size=    1320kB time=00:00:06.64 bitrate=1628.4kbits/s speed=0.251x    frame=  357 fps= 13 q=64.0 size=    1320kB time=00:00:06.68 bitrate=1618.6kbits/s speed=0.246x    frame=  371 fps= 13 q=64.0 size=    1320kB time=00:00:06.96 bitrate=1553.5kbits/s speed=0.252x    frame=  381 fps= 14 q=64.0 size=    1320kB time=00:00:07.16 bitrate=1510.1kbits/s speed=0.254x    frame=  384 fps= 13 q=64.0 size=    1320kB time=00:00:07.22 bitrate=1497.6kbits/s speed=0.25x    frame=  391 fps= 13 q=64.0 size=    1320kB time=00:00:07.36 bitrate=1469.1kbits/s speed=0.249x    frame=  398 fps= 13 q=64.0 size=    1320kB time=00:00:07.50 bitrate=1441.7kbits/s speed=0.25x    frame=  413 fps= 14 q=64.0 size=    1320kB time=00:00:07.80 bitrate=1386.2kbits/s speed=0.255x    frame=  428 fps= 14 q=65.0 size=    1320kB time=00:00:08.10 bitrate=1334.9kbits/s speed=0.26x    frame=  443 fps= 14 q=65.0 size=    1320kB time=00:00:08.40 bitrate=1287.2kbits/s speed=0.266x    frame=  458 fps= 14 q=65.0 size=    1320kB time=00:00:08.70 bitrate=1242.9kbits/s speed=0.271x    frame=  473 fps= 14 q=65.0 size=    1320kB time=00:00:09.00 bitrate=1201.4kbits/s speed=0.276x    frame=  488 fps= 15 q=65.0 size=    1320kB time=00:00:09.30 bitrate=1162.7kbits/s speed=0.28x    frame=  500 fps= 15 q=-1.0 Lsize=    2591kB time=00:00:09.94 bitrate=2134.9kbits/s speed=0.293x    
video:2586kB audio:0kB subtitle:0kB other streams:0kB global headers:0kB muxing overhead: 0.163337%
bench: utime=52.020s
bench: maxrss=1081152kB
[libx264 @ 0x37391c0] frame I:2     Avg QP:47.41  size: 70744
[libx264 @ 0x37391c0] frame P:126   Avg QP:50.95  size: 12166
[libx264 @ 0x37391c0] frame B:372   Avg QP:50.97  size:  2617
[libx264 @ 0x37391c0] consecutive B-frames:  0.8%  0.0%  0.0% 99.2%
[libx264 @ 0x37391c0] mb I  I16..4: 58.5% 41.4%  0.1%
[libx264 @ 0x37391c0] mb P  I16..4:  6.6%  1.9%  0.0%  P16..4:  7.6%  1.2%  0.3%  0.0%  0.0%    skip:82.4%
[libx264 @ 0x37391c0] mb B  I16..4:  0.0%  0.0%  0.0%  B16..8:  2.7%  0.0%  0.0%  direct: 0.5%  skip:96.8%  L0:47.9% L1:52.0% BI: 0.1%
[libx264 @ 0x37391c0] final ratefactor: 56.13
[libx264 @ 0x37391c0] 8x8 transform intra:25.4% inter:76.2%
[libx264 @ 0x37391c0] coded y,uvDC,uvAC intra: 7.3% 32.2% 1.1% inter: 0.1% 0.8% 0.0%
[libx264 @ 0x37391c0] i16 v,h,dc,p: 72% 20%  8%  1%
[libx264 @ 0x37391c0] i8 v,h,dc,ddl,ddr,vr,hd,vl,hu: 11% 11% 57%  4%  3%  3%  3%  4%  4%
[libx264 @ 0x37391c0] i4 v,h,dc,ddl,ddr,vr,hd,vl,hu: 20% 19% 21%  8%  6%  7%  7%  7%  5%
[libx264 @ 0x37391c0] i8c dc,h,v,p: 98%  1%  1%  0%
[libx264 @ 0x37391c0] Weighted P-Frames: Y:1.6% UV:0.0%
[libx264 @ 0x37391c0] kb/s:2118.25
